<svg width="512" height="512" viewBox="0 0 512 512" fill="none" xmlns="http://www.w3.org/2000/svg">
<g clip-path="url(#clip0_154_30)">
<path d="M362.667 213.333C280.341 213.333 213.333 280.32 213.333 362.667C213.333 445.013 280.341 512 362.667 512C444.992 512 512 445.013 512 362.667C512 280.32 444.992 213.333 362.667 213.333ZM362.667 469.333C303.851 469.333 256 421.483 256 362.667C256 303.851 303.851 256 362.667 256C421.483 256 469.333 303.851 469.333 362.667C469.333 421.483 421.483 469.333 362.667 469.333ZM399.083 368.917C407.424 377.259 407.424 390.741 399.083 399.083C394.923 403.243 389.461 405.333 384 405.333C378.539 405.333 373.077 403.243 368.917 399.083L347.584 377.749C343.573 373.739 341.333 368.32 341.333 362.667V320C341.333 308.224 350.869 298.667 362.667 298.667C374.464 298.667 384 308.224 384 320V353.835L399.083 368.917ZM192 469.333H106.667C71.3813 469.333 42.6667 440.619 42.6667 405.333V298.667H170.667C182.464 298.667 192 289.109 192 277.333C192 265.557 182.464 256 170.667 256H42.6667V192C42.6667 156.715 71.3813 128 106.667 128H405.333C440.619 128 469.333 156.715 469.333 192C469.333 203.776 478.869 213.333 490.667 213.333C502.464 213.333 512 203.776 512 192C512 133.184 464.149 85.3333 405.333 85.3333H381.845C371.925 36.7147 328.832 0 277.333 0H234.667C183.168 0 140.053 36.7147 130.155 85.3333H106.667C47.8507 85.3333 0 133.184 0 192V405.333C0 464.149 47.8507 512 106.667 512H192C203.797 512 213.333 502.443 213.333 490.667C213.333 478.891 203.797 469.333 192 469.333ZM234.667 42.6667H277.333C305.152 42.6667 328.853 60.5013 337.664 85.3333H174.336C183.147 60.5013 206.848 42.6667 234.667 42.6667Z" fill="white"/>
</g>
<defs>
<clipPath id="clip0_154_30">
<rect width="512" height="512" fill="white"/>
</clipPath>
</defs>
</svg>
