<svg width="512" height="512" viewBox="0 0 512 512" fill="none" xmlns="http://www.w3.org/2000/svg">
<g clip-path="url(#clip0_303_5)">
<path d="M148.971 512.149C119.397 512.219 90.4684 503.506 65.8524 487.115C41.2363 470.725 22.0413 447.394 10.7007 420.081C-0.639936 392.768 -3.61544 362.703 2.15139 333.697C7.91821 304.691 22.1677 278.05 43.0933 257.152L269.227 31.3386C289.242 11.2783 316.406 -0.00942945 344.743 -0.0414357C373.081 -0.0734419 400.27 11.1529 420.331 31.1679C440.391 51.1829 451.679 78.3471 451.711 106.685C451.743 135.022 440.516 162.212 420.501 182.272L194.347 408.064C182.115 419.721 165.867 426.224 148.971 426.224C132.074 426.224 115.826 419.721 103.595 408.064C97.6441 402.12 92.9236 395.062 89.7028 387.292C86.4821 379.523 84.8243 371.194 84.8243 362.784C84.8243 354.373 86.4821 346.045 89.7028 338.276C92.9236 330.506 97.6441 323.448 103.595 317.504L314.667 106.816L344.917 137.003L133.845 347.733C129.846 351.734 127.599 357.159 127.599 362.816C127.599 368.473 129.846 373.898 133.845 377.899C137.921 381.787 143.337 383.957 148.971 383.957C154.604 383.957 160.021 381.787 164.096 377.899L390.4 152.085C402.409 140.048 409.144 123.733 409.124 106.73C409.104 89.7265 402.331 73.4276 390.293 61.4186C378.256 49.4096 361.941 42.6742 344.938 42.6942C327.935 42.7142 311.636 49.4879 299.627 61.5252L73.344 287.317C53.3261 307.375 42.096 334.563 42.124 362.9C42.152 391.238 53.4359 418.403 73.4933 438.421C93.5508 458.439 120.739 469.669 149.076 469.641C177.414 469.613 204.579 458.329 224.597 438.272L481.045 182.272L511.296 212.459L254.848 468.459C240.944 482.35 224.433 493.361 206.265 500.858C188.096 508.356 168.626 512.193 148.971 512.149Z" fill="white"/>
</g>
<defs>
<clipPath id="clip0_303_5">
<rect width="512" height="512" fill="white"/>
</clipPath>
</defs>
</svg>
