<svg width="512" height="512" viewBox="0 0 512 512" fill="none" xmlns="http://www.w3.org/2000/svg">
<g clip-path="url(#clip0_104_2)">
<path d="M426.667 0H85.3333C62.7015 0 40.9967 8.99045 24.9936 24.9936C8.99045 40.9967 0 62.7015 0 85.3333L0 341.333C0 363.965 8.99045 385.67 24.9936 401.673C40.9967 417.676 62.7015 426.667 85.3333 426.667H147.2L242.155 506.944C246.007 510.204 250.89 511.993 255.936 511.993C260.982 511.993 265.865 510.204 269.717 506.944L364.8 426.667H426.667C449.298 426.667 471.003 417.676 487.006 401.673C503.01 385.67 512 363.965 512 341.333V85.3333C512 62.7015 503.01 40.9967 487.006 24.9936C471.003 8.99045 449.298 0 426.667 0ZM149.333 106.667H256C261.658 106.667 267.084 108.914 271.085 112.915C275.086 116.916 277.333 122.342 277.333 128C277.333 133.658 275.086 139.084 271.085 143.085C267.084 147.086 261.658 149.333 256 149.333H149.333C143.675 149.333 138.249 147.086 134.248 143.085C130.248 139.084 128 133.658 128 128C128 122.342 130.248 116.916 134.248 112.915C138.249 108.914 143.675 106.667 149.333 106.667ZM362.667 320H149.333C143.675 320 138.249 317.752 134.248 313.752C130.248 309.751 128 304.325 128 298.667C128 293.009 130.248 287.583 134.248 283.582C138.249 279.581 143.675 277.333 149.333 277.333H362.667C368.325 277.333 373.751 279.581 377.752 283.582C381.752 287.583 384 293.009 384 298.667C384 304.325 381.752 309.751 377.752 313.752C373.751 317.752 368.325 320 362.667 320ZM362.667 234.667H149.333C143.675 234.667 138.249 232.419 134.248 228.418C130.248 224.418 128 218.991 128 213.333C128 207.675 130.248 202.249 134.248 198.248C138.249 194.248 143.675 192 149.333 192H362.667C368.325 192 373.751 194.248 377.752 198.248C381.752 202.249 384 207.675 384 213.333C384 218.991 381.752 224.418 377.752 228.418C373.751 232.419 368.325 234.667 362.667 234.667Z" fill="white"/>
</g>
<defs>
<clipPath id="clip0_104_2">
<rect width="512" height="512" fill="white"/>
</clipPath>
</defs>
</svg>
