<svg width="100" height="77" viewBox="0 0 100 77" fill="none" xmlns="http://www.w3.org/2000/svg">
<g clip-path="url(#clip0_7_2)">
<path d="M56.2874 1.48141C67.0715 0.0198239 78.0507 0.154915 88.8235 1.65637C89.5125 1.75484 90.2265 1.8289 90.858 2.14628C91.2093 2.31799 91.4894 2.64677 91.5542 3.03983C91.6643 3.70633 91.4975 4.37772 91.3567 5.02631C90.9778 6.5709 90.4815 8.08701 89.8833 9.55998C89.6388 10.1508 89.3384 10.8197 88.7005 11.0623C87.8772 11.3585 86.9964 11.1152 86.1666 10.9752C83.2335 10.4788 80.26 10.2761 77.2914 10.1419C73.4257 9.98723 69.5512 9.98641 65.6904 10.2395C59.3127 29.3752 52.935 48.5108 46.5581 67.6473C46.2602 68.4546 46.1023 69.3595 45.5008 70.0114C45.0628 70.5029 44.4079 70.7332 43.7667 70.7763C42.5702 70.8642 41.368 70.8504 40.1691 70.8561C38.9418 70.848 37.7137 70.8447 36.488 70.7674C35.9569 70.7145 35.3587 70.6071 35 70.1709C34.6479 69.7095 34.7547 69.0788 34.9093 68.5636C41.2628 49.4849 47.6227 30.4087 53.9753 11.33C52.2461 11.4675 50.5371 11.7825 48.8402 12.1332C45.7793 12.7826 42.7532 13.5932 39.7627 14.5136C38.265 14.9791 36.7762 15.4771 35.319 16.0574C34.8154 16.2323 34.188 16.3943 33.7225 16.0427C33.2862 15.6765 33.2125 15.0653 33.1518 14.5323C33.0158 12.9877 33.0182 11.4325 33.0644 9.88388C33.0976 9.11891 33.1202 8.29209 33.5752 7.64105C33.8674 7.21462 34.3362 6.95583 34.8114 6.7833C41.7404 4.20763 48.9698 2.47668 56.2874 1.48141Z" fill="#00AFEA"/>
<path d="M73.1546 17.0055C73.9058 16.5896 74.7947 16.6002 75.627 16.6441C77.2526 16.719 78.879 16.8045 80.4997 16.9509C81.1652 17.038 81.9067 17.2415 82.3066 17.8282C82.6588 18.3678 82.539 19.057 82.339 19.63C79.8253 27.2064 77.3149 34.7837 74.7777 42.352C76.2609 40.9092 77.8735 39.6022 79.5776 38.4328C81.5311 37.0965 83.6141 35.9344 85.8331 35.11C87.6926 34.4248 89.6704 33.978 91.6611 34.0676C93.0811 34.1286 94.5132 34.4818 95.7251 35.2484C96.8293 35.9377 97.7109 36.9557 98.3108 38.1097C99.0848 39.5924 99.445 41.2599 99.5656 42.9201C99.717 44.546 99.5551 46.1826 99.3576 47.798C98.9261 50.9295 98.0323 53.9877 96.8026 56.8946C94.7585 61.7009 91.7639 66.1418 87.8505 69.6078C85.774 71.4421 83.4344 72.985 80.9021 74.1056C78.067 75.3678 74.9963 76.0832 71.8998 76.2345C68.9983 76.3647 66.0135 76.1222 63.3014 75.0081C61.6969 74.3465 60.2122 73.3382 59.1103 71.9808C57.7098 70.28 56.9998 68.0729 56.9569 65.8798C56.9213 64.2147 57.2581 62.5578 57.8191 60.9962C62.5283 46.8987 67.2246 32.7964 71.9289 18.6965C72.1531 18.0292 72.5199 17.3562 73.1546 17.0055ZM84.2447 43.6346C83.2182 43.7957 82.2362 44.1757 81.3182 44.6583C79.1866 45.7976 77.3546 47.4277 75.7201 49.1985C72.698 52.5538 70.2904 56.4722 68.706 60.7113C68.332 61.7554 67.8795 62.7995 67.822 63.9226C67.7581 64.891 68.0001 65.9017 68.6065 66.67C69.3286 67.6066 70.5008 68.1258 71.6666 68.1592C73.1578 68.1901 74.6506 67.8597 76.005 67.2339C77.4396 66.5739 78.7171 65.6047 79.831 64.4873C81.5659 62.7401 82.9284 60.6535 84.0472 58.4652C85.3069 55.9783 86.2702 53.3391 86.9187 50.6259C87.2498 49.1684 87.5331 47.6824 87.5064 46.1809C87.4773 45.3834 87.3 44.4866 86.6362 43.9707C85.9561 43.4515 85.0421 43.5239 84.2447 43.6346Z" fill="#00AFEA"/>
<path d="M19.2362 22.0493C22.1053 21.0809 25.1727 20.6935 28.1892 20.9475C30.7652 21.1753 33.3744 22.0982 35.2202 23.978C36.6037 25.3639 37.4878 27.2056 37.8464 29.1261C38.1937 30.9848 38.103 32.9135 37.6918 34.7544C37.1801 37.0224 36.0063 39.1188 34.396 40.7822C33.3679 41.858 32.1827 42.7743 30.9271 43.5662C29.6982 44.3352 28.4134 45.0196 27.0614 45.5413C24.2604 46.6252 21.2917 47.2274 18.3085 47.5058C16.0863 47.6938 13.8284 47.7401 11.6256 47.3398C11.2872 49.0552 11.3325 50.8871 11.9875 52.5245C12.4651 53.7305 13.3224 54.7868 14.4258 55.4663C15.7997 56.3249 17.4455 56.6211 19.042 56.6252C21.9499 56.6146 24.8465 56.0246 27.5569 54.974C28.5535 54.5834 29.5249 54.1252 30.4511 53.5848C30.7967 53.3708 31.17 53.1641 31.5877 53.1592C31.9067 53.1389 32.2572 53.287 32.3851 53.5995C32.5948 54.087 32.4223 54.6208 32.3001 55.1075C31.901 56.5576 31.4169 57.9842 30.8955 59.3945C30.6162 60.1335 30.3078 60.9212 29.6634 61.4176C27.4274 63.0192 24.8716 64.1536 22.2049 64.7949C19.9794 65.3353 17.6859 65.5517 15.4006 65.5558C12.4942 65.564 9.49482 65.0586 6.97871 63.5238C4.96939 62.3177 3.40208 60.4427 2.43951 58.3089C1.14503 55.4655 0.766965 52.2925 0.784775 49.1928C0.845492 45.3777 1.77648 41.6098 3.23936 38.1007C5.12887 33.6142 7.96313 29.4826 11.6936 26.3446C13.9223 24.4712 16.4797 22.9811 19.2362 22.0493ZM22.9335 28.3603C21.6196 28.668 20.47 29.4468 19.4743 30.3362C18.2712 31.4227 17.2593 32.706 16.372 34.061C15.1464 35.9604 14.1271 38.0104 13.4811 40.1832C15.2006 40.3785 16.9411 40.2418 18.642 39.957C20.2725 39.6697 21.8908 39.2302 23.3836 38.5003C24.6247 37.8769 25.8171 37.0525 26.5968 35.8758C27.3853 34.7023 27.6678 33.2521 27.6233 31.8548C27.5431 30.6072 26.8866 29.367 25.8042 28.7184C24.9485 28.2025 23.8896 28.1341 22.9335 28.3603Z" fill="#00AFEA"/>
</g>
<defs>
<clipPath id="clip0_7_2">
<rect width="100" height="77" fill="white"/>
</clipPath>
</defs>
</svg>
