<svg width="512" height="512" viewBox="0 0 512 512" fill="none" xmlns="http://www.w3.org/2000/svg">
<g clip-path="url(#clip0_307_8)">
<path d="M480 192C488.487 192 496.626 188.629 502.627 182.627C508.629 176.626 512 168.487 512 160V74.6667C512 54.8638 504.133 35.8721 490.131 21.8694C476.128 7.86664 457.136 0 437.333 0H352C343.513 0 335.374 3.37142 329.373 9.37258C323.371 15.3737 320 23.5131 320 32C320 40.4869 323.371 48.6263 329.373 54.6274C335.374 60.6286 343.513 64 352 64H402.688L256 210.752L109.248 64H160C168.487 64 176.626 60.6286 182.627 54.6274C188.629 48.6263 192 40.4869 192 32C192 23.5131 188.629 15.3737 182.627 9.37258C176.626 3.37142 168.487 0 160 0L74.6667 0C54.8638 0 35.8721 7.86664 21.8694 21.8694C7.86664 35.8721 0 54.8638 0 74.6667L0 160C0 168.487 3.37142 176.626 9.37258 182.627C15.3737 188.629 23.5131 192 32 192C40.4869 192 48.6263 188.629 54.6274 182.627C60.6286 176.626 64 168.487 64 160V109.248L210.752 256L64 402.752V352C64 343.513 60.6286 335.374 54.6274 329.373C48.6263 323.371 40.4869 320 32 320C23.5131 320 15.3737 323.371 9.37258 329.373C3.37142 335.374 0 343.513 0 352L0 437.333C0 457.136 7.86664 476.128 21.8694 490.131C35.8721 504.133 54.8638 512 74.6667 512H160C168.487 512 176.626 508.629 182.627 502.627C188.629 496.626 192 488.487 192 480C192 471.513 188.629 463.374 182.627 457.373C176.626 451.371 168.487 448 160 448H109.248L256 301.248L402.752 448H352C343.513 448 335.374 451.371 329.373 457.373C323.371 463.374 320 471.513 320 480C320 488.487 323.371 496.626 329.373 502.627C335.374 508.629 343.513 512 352 512H437.333C457.136 512 476.128 504.133 490.131 490.131C504.133 476.128 512 457.136 512 437.333V352C512 343.513 508.629 335.374 502.627 329.373C496.626 323.371 488.487 320 480 320C471.513 320 463.374 323.371 457.373 329.373C451.371 335.374 448 343.513 448 352V402.688L301.248 256L448 109.248V160C448 168.487 451.371 176.626 457.373 182.627C463.374 188.629 471.513 192 480 192Z" fill="white"/>
</g>
<defs>
<clipPath id="clip0_307_8">
<rect width="512" height="512" fill="white"/>
</clipPath>
</defs>
</svg>
