<svg width="512" height="512" viewBox="0 0 512 512" fill="none" xmlns="http://www.w3.org/2000/svg">
<g clip-path="url(#clip0_154_11)">
<path d="M425.579 118.101L351.253 43.7333C337.415 29.8269 320.957 18.8017 302.831 11.2951C284.706 3.78854 265.272 -0.050491 245.653 3.42383e-06H149.333C121.054 0.0338777 93.9424 11.2828 73.9459 31.2794C53.9493 51.2759 42.7004 78.3873 42.6665 106.667V405.333C42.7004 433.613 53.9493 460.724 73.9459 480.721C93.9424 500.717 121.054 511.966 149.333 512H362.667C390.946 511.966 418.057 500.717 438.054 480.721C458.05 460.724 469.299 433.613 469.333 405.333V223.68C469.386 204.062 465.546 184.629 458.036 166.506C450.525 148.383 439.493 131.93 425.579 118.101ZM395.413 148.267C401.928 154.968 407.53 162.5 412.075 170.667H320C314.342 170.667 308.916 168.419 304.915 164.418C300.914 160.418 298.667 154.991 298.667 149.333V57.2587C306.836 61.801 314.374 67.3954 321.088 73.8987L395.413 148.267ZM426.667 405.333C426.667 422.307 419.924 438.586 407.921 450.588C395.919 462.591 379.64 469.333 362.667 469.333H149.333C132.359 469.333 116.081 462.591 104.078 450.588C92.076 438.586 85.3332 422.307 85.3332 405.333V106.667C85.3332 89.6928 92.076 73.4142 104.078 61.4118C116.081 49.4095 132.359 42.6667 149.333 42.6667H245.653C249.152 42.6667 252.544 43.3493 256 43.6693V149.333C256 166.307 262.743 182.586 274.745 194.588C286.747 206.591 303.026 213.333 320 213.333H425.664C425.984 216.789 426.667 220.16 426.667 223.68V405.333Z" fill="white"/>
</g>
<defs>
<clipPath id="clip0_154_11">
<rect width="512" height="512" fill="white"/>
</clipPath>
</defs>
</svg>
