<svg width="681" height="655" viewBox="0 0 681 655" fill="none" xmlns="http://www.w3.org/2000/svg">
<ellipse cx="340.5" cy="327.5" rx="340.5" ry="327.5" fill="#F36F31"/>
<path d="M421.25 127C416.94 127 412.807 128.765 409.76 131.906C406.712 135.047 405 139.308 405 143.75C405 193.146 363.026 210.75 323.75 210.75H210C192.761 210.75 176.228 217.809 164.038 230.374C151.848 242.939 145 259.98 145 277.75V311.25C145.035 321.279 147.266 331.17 151.526 340.187C155.786 349.203 161.965 357.113 169.603 363.326L227.648 496.857C231.776 506.422 238.505 514.55 247.022 520.254C255.539 525.959 265.477 528.997 275.634 529C283.715 528.995 291.667 526.906 298.765 522.924C305.863 518.943 311.883 513.194 316.276 506.203C320.669 499.211 323.295 491.198 323.917 482.892C324.538 474.587 323.135 466.253 319.834 458.65L284.084 378.25H323.75C363.026 378.25 405 395.854 405 445.25C405 449.692 406.712 453.953 409.76 457.094C412.807 460.235 416.94 462 421.25 462C425.56 462 429.693 460.235 432.741 457.094C435.788 453.953 437.5 449.692 437.5 445.25V143.75C437.5 139.308 435.788 135.047 432.741 131.906C429.693 128.765 425.56 127 421.25 127ZM290.226 472.368C291.303 474.874 291.755 477.617 291.543 480.348C291.331 483.08 290.461 485.713 289.012 488.011C287.563 490.308 285.58 492.196 283.244 493.504C280.908 494.812 278.292 495.498 275.634 495.5C271.756 495.497 267.963 494.334 264.715 492.151C261.467 489.969 258.904 486.861 257.336 483.206L211.706 378.25H248.334L290.226 472.368ZM405 371.55C381.784 353.111 353.038 343.63 323.75 344.75H210C201.38 344.75 193.114 341.221 187.019 334.938C180.924 328.656 177.5 320.135 177.5 311.25V277.75C177.5 268.865 180.924 260.344 187.019 254.062C193.114 247.779 201.38 244.25 210 244.25H323.75C353.029 245.394 381.773 235.942 405 217.534V371.55ZM533.375 385.821C532.422 387.79 531.101 389.547 529.489 390.99C527.877 392.433 526.005 393.534 523.98 394.231C521.955 394.928 519.816 395.207 517.686 395.051C515.556 394.896 513.477 394.309 511.568 393.325L479.068 376.575C475.21 374.589 472.276 371.105 470.911 366.89C469.546 362.674 469.861 358.072 471.788 354.096C473.714 350.121 477.094 347.096 481.184 345.689C485.273 344.282 489.738 344.607 493.595 346.592L526.095 363.342C529.932 365.327 532.852 368.796 534.216 372.992C535.58 377.188 535.278 381.77 533.375 385.737V385.821ZM471.788 235.071C470.833 233.103 470.264 230.959 470.113 228.764C469.962 226.569 470.232 224.364 470.908 222.277C471.584 220.189 472.653 218.259 474.053 216.598C475.453 214.936 477.157 213.575 479.068 212.592L511.568 195.842C515.425 193.857 519.889 193.532 523.979 194.939C528.069 196.346 531.449 199.371 533.375 203.347C535.301 207.322 535.617 211.924 534.252 216.14C532.886 220.355 529.952 223.839 526.095 225.825L493.595 242.575C491.685 243.559 489.606 244.146 487.476 244.301C485.347 244.457 483.208 244.178 481.183 243.481C479.157 242.784 477.285 241.683 475.673 240.24C474.061 238.797 472.741 237.04 471.788 235.071ZM470 294.5C470 290.058 471.712 285.797 474.76 282.656C477.807 279.515 481.94 277.75 486.25 277.75H518.75C523.06 277.75 527.193 279.515 530.241 282.656C533.288 285.797 535 290.058 535 294.5C535 298.942 533.288 303.203 530.241 306.344C527.193 309.485 523.06 311.25 518.75 311.25H486.25C481.94 311.25 477.807 309.485 474.76 306.344C471.712 303.203 470 298.942 470 294.5Z" fill="white"/>
</svg>
