<svg width="681" height="655" viewBox="0 0 681 655" fill="none" xmlns="http://www.w3.org/2000/svg">
<ellipse cx="340.5" cy="327.5" rx="340.5" ry="327.5" fill="#0388A9"/>
<path d="M362.25 126C357.94 126 353.807 127.765 350.76 130.906C347.712 134.047 346 138.308 346 142.75C346 192.146 304.026 209.75 264.75 209.75H151C133.761 209.75 117.228 216.809 105.038 229.374C92.8482 241.939 86 258.98 86 276.75L86 310.25C86.0355 320.279 88.2663 330.17 92.526 339.187C96.7858 348.203 102.965 356.113 110.603 362.326L168.648 495.857C172.776 505.422 179.505 513.55 188.022 519.254C196.539 524.959 206.477 527.997 216.634 528C224.715 527.995 232.667 525.906 239.765 521.924C246.863 517.943 252.883 512.194 257.276 505.203C261.669 498.211 264.295 490.198 264.917 481.892C265.538 473.587 264.135 465.253 260.834 457.65L225.084 377.25H264.75C304.026 377.25 346 394.854 346 444.25C346 448.692 347.712 452.953 350.76 456.094C353.807 459.235 357.94 461 362.25 461C366.56 461 370.693 459.235 373.741 456.094C376.788 452.953 378.5 448.692 378.5 444.25V142.75C378.5 138.308 376.788 134.047 373.741 130.906C370.693 127.765 366.56 126 362.25 126ZM231.226 471.368C232.303 473.874 232.755 476.617 232.543 479.348C232.331 482.08 231.461 484.713 230.012 487.011C228.563 489.308 226.58 491.196 224.244 492.504C221.908 493.812 219.292 494.498 216.634 494.5C212.756 494.497 208.963 493.334 205.715 491.151C202.467 488.969 199.904 485.861 198.336 482.206L152.706 377.25H189.334L231.226 471.368ZM346 370.55C322.784 352.111 294.038 342.63 264.75 343.75H151C142.38 343.75 134.114 340.221 128.019 333.938C121.924 327.656 118.5 319.135 118.5 310.25V276.75C118.5 267.865 121.924 259.344 128.019 253.062C134.114 246.779 142.38 243.25 151 243.25H264.75C294.029 244.394 322.773 234.942 346 216.534V370.55ZM474.375 384.821C473.422 386.79 472.101 388.547 470.489 389.99C468.877 391.433 467.005 392.534 464.98 393.231C462.955 393.928 460.816 394.207 458.686 394.051C456.556 393.896 454.477 393.309 452.568 392.325L420.068 375.575C416.21 373.589 413.276 370.105 411.911 365.89C410.546 361.674 410.861 357.072 412.788 353.096C414.714 349.121 418.094 346.096 422.184 344.689C426.273 343.282 430.738 343.607 434.595 345.592L467.095 362.342C470.932 364.327 473.852 367.796 475.216 371.992C476.58 376.188 476.278 380.77 474.375 384.737V384.821ZM412.788 234.071C411.833 232.103 411.264 229.959 411.113 227.764C410.962 225.569 411.232 223.364 411.908 221.277C412.584 219.189 413.653 217.259 415.053 215.598C416.453 213.936 418.157 212.575 420.068 211.592L452.568 194.842C456.425 192.857 460.889 192.532 464.979 193.939C469.069 195.346 472.449 198.371 474.375 202.347C476.302 206.322 476.617 210.924 475.252 215.14C473.886 219.355 470.952 222.839 467.095 224.825L434.595 241.575C432.685 242.559 430.606 243.146 428.476 243.301C426.347 243.457 424.208 243.178 422.183 242.481C420.157 241.784 418.285 240.683 416.673 239.24C415.061 237.797 413.741 236.04 412.788 234.071ZM411 293.5C411 289.058 412.712 284.797 415.76 281.656C418.807 278.515 422.94 276.75 427.25 276.75H459.75C464.06 276.75 468.193 278.515 471.241 281.656C474.288 284.797 476 289.058 476 293.5C476 297.942 474.288 302.203 471.241 305.344C468.193 308.485 464.06 310.25 459.75 310.25H427.25C422.94 310.25 418.807 308.485 415.76 305.344C412.712 302.203 411 297.942 411 293.5Z" fill="white"/>
<path d="M523.12 452.824C515.099 448.557 511.088 441.859 511.088 432.728C511.088 428.12 512.283 423.939 514.672 420.184C517.061 416.344 520.688 413.315 525.552 411.096C530.416 408.792 536.389 407.64 543.472 407.64C550.555 407.64 556.485 408.792 561.264 411.096C566.128 413.315 569.755 416.344 572.144 420.184C574.533 423.939 575.728 428.12 575.728 432.728C575.728 437.336 574.619 441.347 572.4 444.76C570.267 448.173 567.365 450.861 563.696 452.824C568.304 455.043 571.845 458.115 574.32 462.04C576.795 465.88 578.032 470.403 578.032 475.608C578.032 481.667 576.496 486.915 573.424 491.352C570.352 495.704 566.171 499.032 560.88 501.336C555.675 503.64 549.872 504.792 543.472 504.792C537.072 504.792 531.227 503.64 525.936 501.336C520.731 499.032 516.592 495.704 513.52 491.352C510.448 486.915 508.912 481.667 508.912 475.608C508.912 470.317 510.149 465.752 512.624 461.912C515.099 457.987 518.597 454.957 523.12 452.824ZM554.48 436.056C554.48 432.557 553.456 429.869 551.408 427.992C549.445 426.029 546.8 425.048 543.472 425.048C540.144 425.048 537.456 426.029 535.408 427.992C533.445 429.955 532.464 432.685 532.464 436.184C532.464 439.512 533.488 442.157 535.536 444.12C537.584 445.997 540.229 446.936 543.472 446.936C546.715 446.936 549.36 445.955 551.408 443.992C553.456 442.029 554.48 439.384 554.48 436.056ZM543.472 462.296C539.461 462.296 536.219 463.405 533.744 465.624C531.269 467.757 530.032 470.744 530.032 474.584C530.032 478.168 531.227 481.112 533.616 483.416C536.091 485.72 539.376 486.872 543.472 486.872C547.568 486.872 550.768 485.72 553.072 483.416C555.461 481.112 556.656 478.168 556.656 474.584C556.656 470.829 555.419 467.843 552.944 465.624C550.555 463.405 547.397 462.296 543.472 462.296Z" fill="white"/>
</svg>
