<svg width="512" height="512" viewBox="0 0 512 512" fill="none" xmlns="http://www.w3.org/2000/svg">
<g clip-path="url(#clip0_154_4)">
<path d="M149.333 128H490.667C496.325 128 501.751 125.752 505.752 121.752C509.752 117.751 512 112.325 512 106.667C512 101.009 509.752 95.5825 505.752 91.5817C501.751 87.5809 496.325 85.3333 490.667 85.3333H149.333C143.675 85.3333 138.249 87.5809 134.248 91.5817C130.248 95.5825 128 101.009 128 106.667C128 112.325 130.248 117.751 134.248 121.752C138.249 125.752 143.675 128 149.333 128Z" fill="white"/>
<path d="M490.667 234.667H149.333C143.675 234.667 138.249 236.914 134.248 240.915C130.248 244.916 128 250.342 128 256C128 261.658 130.248 267.084 134.248 271.085C138.249 275.086 143.675 277.333 149.333 277.333H490.667C496.325 277.333 501.751 275.086 505.752 271.085C509.752 267.084 512 261.658 512 256C512 250.342 509.752 244.916 505.752 240.915C501.751 236.914 496.325 234.667 490.667 234.667Z" fill="white"/>
<path d="M490.667 384H149.333C143.675 384 138.249 386.248 134.248 390.248C130.248 394.249 128 399.675 128 405.333C128 410.991 130.248 416.418 134.248 420.418C138.249 424.419 143.675 426.667 149.333 426.667H490.667C496.325 426.667 501.751 424.419 505.752 420.418C509.752 416.418 512 410.991 512 405.333C512 399.675 509.752 394.249 505.752 390.248C501.751 386.248 496.325 384 490.667 384Z" fill="white"/>
<path d="M42.6667 149.333C66.2308 149.333 85.3333 130.231 85.3333 106.667C85.3333 83.1025 66.2308 64 42.6667 64C19.1025 64 0 83.1025 0 106.667C0 130.231 19.1025 149.333 42.6667 149.333Z" fill="white"/>
<path d="M42.6667 298.667C66.2308 298.667 85.3333 279.564 85.3333 256C85.3333 232.436 66.2308 213.333 42.6667 213.333C19.1025 213.333 0 232.436 0 256C0 279.564 19.1025 298.667 42.6667 298.667Z" fill="white"/>
<path d="M42.6667 448C66.2308 448 85.3333 428.897 85.3333 405.333C85.3333 381.769 66.2308 362.667 42.6667 362.667C19.1025 362.667 0 381.769 0 405.333C0 428.897 19.1025 448 42.6667 448Z" fill="white"/>
</g>
<defs>
<clipPath id="clip0_154_4">
<rect width="512" height="512" fill="white"/>
</clipPath>
</defs>
</svg>
