<svg width="512" height="512" viewBox="0 0 512 512" fill="none" xmlns="http://www.w3.org/2000/svg">
<g clip-path="url(#clip0_307_14)">
<path d="M61.3549 151.851L342.72 433.216C327.467 438.635 310.955 442.624 293.355 445.141L34.1762 185.984C41.8775 174.955 50.8375 163.371 61.3549 151.851ZM3.81886 238.528C-1.23714 249.643 -1.23714 262.379 3.81886 273.515C4.69352 275.456 5.82419 277.76 6.95486 280.085L154.39 427.52C178.006 437.675 204.758 444.587 234.731 446.891L11.2855 223.424C8.23485 229.227 5.71752 234.389 3.81886 238.528ZM420.032 389.248L511.595 480.811L481.43 510.976L0.405522 29.9307L30.5709 -0.23468L128.278 97.472C166.87 75.2427 209.75 63.9787 256.022 63.9787C415.979 63.9787 489.494 197.547 508.203 238.485C513.28 249.6 513.28 262.357 508.203 273.451C498.006 295.765 470.443 347.797 420.011 389.227L420.032 389.248ZM182.208 151.403L213.056 182.251C245.718 163.243 288.384 167.701 316.352 195.648C344.32 223.595 348.779 266.283 329.75 298.944L360.598 329.792C395.862 279.851 391.168 210.133 346.518 165.483C301.867 120.811 232.128 116.117 182.208 151.403Z" fill="white"/>
</g>
<defs>
<clipPath id="clip0_307_14">
<rect width="512" height="512" fill="white"/>
</clipPath>
</defs>
</svg>
