<svg width="512" height="512" viewBox="0 0 512 512" fill="none" xmlns="http://www.w3.org/2000/svg">
<g clip-path="url(#clip0_154_2)">
<path d="M362.667 0C357.009 0 351.583 2.24761 347.582 6.24839C343.581 10.2492 341.333 15.6754 341.333 21.3333C341.333 84.2453 286.229 106.667 234.667 106.667H85.3333C62.7015 106.667 40.9967 115.657 24.9936 131.66C8.99045 147.663 0 169.368 0 192L0 234.667C0.0465955 247.44 2.97518 260.038 8.56752 271.521C14.1599 283.005 22.2717 293.079 32.2987 300.992L108.501 471.061C113.921 483.245 122.756 493.596 133.936 500.861C145.117 508.127 158.164 511.996 171.499 512C182.108 511.993 192.547 509.333 201.866 504.262C211.185 499.191 219.087 491.87 224.854 482.965C230.621 474.06 234.07 463.854 234.886 453.276C235.701 442.698 233.859 432.084 229.525 422.4L182.592 320H234.667C286.229 320 341.333 342.421 341.333 405.333C341.333 410.991 343.581 416.418 347.582 420.418C351.583 424.419 357.009 426.667 362.667 426.667C368.325 426.667 373.751 424.419 377.752 420.418C381.752 416.418 384 410.991 384 405.333V21.3333C384 15.6754 381.752 10.2492 377.752 6.24839C373.751 2.24761 368.325 0 362.667 0ZM190.656 439.872C192.069 443.063 192.663 446.557 192.385 450.035C192.107 453.514 190.964 456.869 189.062 459.795C187.159 462.72 184.557 465.125 181.49 466.791C178.423 468.457 174.989 469.33 171.499 469.333C166.408 469.33 161.429 467.848 157.164 465.068C152.9 462.289 149.535 458.331 147.477 453.675L87.5733 320H135.659L190.656 439.872ZM341.333 311.467C310.854 287.983 273.117 275.907 234.667 277.333H85.3333C74.0174 277.333 63.165 272.838 55.1634 264.837C47.1619 256.835 42.6667 245.983 42.6667 234.667V192C42.6667 180.684 47.1619 169.832 55.1634 161.83C63.165 153.829 74.0174 149.333 85.3333 149.333H234.667C273.104 150.79 310.84 138.753 341.333 115.307V311.467ZM509.867 329.643C508.615 332.151 506.882 334.388 504.766 336.226C502.649 338.064 500.191 339.467 497.533 340.354C494.874 341.242 492.066 341.597 489.27 341.399C486.474 341.201 483.745 340.453 481.237 339.2L438.571 317.867C433.507 315.338 429.655 310.9 427.863 305.531C426.07 300.162 426.484 294.301 429.013 289.237C431.543 284.173 435.98 280.322 441.349 278.529C446.718 276.737 452.579 277.151 457.643 279.68L500.309 301.013C505.347 303.541 509.18 307.959 510.971 313.303C512.762 318.648 512.365 324.483 509.867 329.536V329.643ZM429.013 137.643C427.76 135.136 427.013 132.406 426.815 129.61C426.617 126.814 426.972 124.006 427.859 121.347C428.747 118.689 430.15 116.231 431.988 114.114C433.826 111.998 436.063 110.265 438.571 109.013L481.237 87.68C486.301 85.1509 492.162 84.737 497.531 86.5293C502.9 88.3217 507.338 92.1735 509.867 97.2373C512.396 102.301 512.81 108.162 511.017 113.531C509.225 118.9 505.373 123.338 500.309 125.867L457.643 147.2C455.136 148.453 452.406 149.201 449.61 149.399C446.814 149.597 444.006 149.242 441.348 148.354C438.689 147.467 436.231 146.064 434.115 144.226C431.998 142.388 430.265 140.151 429.013 137.643ZM426.667 213.333C426.667 207.675 428.914 202.249 432.915 198.248C436.916 194.248 442.342 192 448 192H490.667C496.325 192 501.751 194.248 505.752 198.248C509.752 202.249 512 207.675 512 213.333C512 218.991 509.752 224.418 505.752 228.418C501.751 232.419 496.325 234.667 490.667 234.667H448C442.342 234.667 436.916 232.419 432.915 228.418C428.914 224.418 426.667 218.991 426.667 213.333Z" fill="white"/>
</g>
<defs>
<clipPath id="clip0_154_2">
<rect width="512" height="512" fill="white"/>
</clipPath>
</defs>
</svg>
