<?xml version="1.0" encoding="utf-8"?>
<!-- Generator: Adobe Illustrator 16.0.4, SVG Export Plug-In . SVG Version: 6.00 Build 0)  -->
<!DOCTYPE svg PUBLIC "-//W3C//DTD SVG 1.1//EN" "http://www.w3.org/Graphics/SVG/1.1/DTD/svg11.dtd">
<svg version="1.1" id="logo" xmlns="http://www.w3.org/2000/svg" xmlns:xlink="http://www.w3.org/1999/xlink" x="0px" y="0px"
	 width="100px" height="13px" viewBox="0 0 100 13" enable-background="new 0 0 100 13" xml:space="preserve">
<path fill="#312D2A" d="M43.146,8.447h6.636l-3.501-5.633L39.89,12.971h-2.952l7.807-12.217C45.051,0.251,45.667,0,46.281,0
	c0.615,0,1.168,0.251,1.536,0.754l7.806,12.217h-2.951l-1.352-2.26h-6.696L43.146,8.447z M73.508,10.711V0.102h-2.521v11.664
	c0,0.301,0.184,0.604,0.369,0.855c0.248,0.251,0.617,0.35,0.922,0.35h11.309l1.477-2.26H73.508z M32.512,8.801
	c2.397,0,4.365-1.914,4.365-4.327c0-2.411-1.968-4.372-4.365-4.372H21.696v12.869h2.457V2.362h8.177c1.166,0,2.09,0.954,2.09,2.111
	c0,1.159-0.924,2.062-2.09,2.062h-6.945l7.374,6.435h3.566L31.346,8.8L32.512,8.801L32.512,8.801z M6.455,12.971
	C2.888,12.971,0,10.107,0,6.536s2.888-6.435,6.455-6.435h7.437c3.564,0,6.453,2.864,6.453,6.435s-2.889,6.435-6.453,6.435H6.455z
	 M13.77,10.711c2.271,0,4.176-1.859,4.176-4.175c0-2.313-1.904-4.174-4.176-4.174H6.577c-2.275,0-4.179,1.86-4.179,4.174
	c0,2.315,1.904,4.175,4.179,4.175H13.77z M60.784,12.971c-3.563,0-6.454-2.863-6.454-6.435s2.891-6.435,6.454-6.435h8.915
	l-1.477,2.261h-7.252c-2.339,0-4.183,1.86-4.183,4.174c0,2.315,1.844,4.175,4.183,4.175h8.909l-1.476,2.26H60.784z M91.087,10.711
	c-1.905,0-3.507-1.26-3.995-3.018h10.57l1.477-2.262H87.092c0.488-1.763,2.09-3.069,3.995-3.069h7.253l1.475-2.261H90.9
	c-3.563,0-6.396,2.864-6.396,6.435s2.831,6.435,6.396,6.435h7.685l1.415-2.26H91.087z"/>
</svg>
