<svg width="512" height="512" viewBox="0 0 512 512" fill="none" xmlns="http://www.w3.org/2000/svg">
<g clip-path="url(#clip0_307_10)">
<path d="M255.915 0C273.578 0 287.897 14.3188 287.897 31.9818V138.588C287.897 156.251 273.578 170.57 255.915 170.57C238.252 170.57 223.933 156.251 223.933 138.588V31.9818C223.933 14.3188 238.251 0 255.915 0Z" fill="white"/>
<path d="M330.538 105.327C330.382 116.063 335.794 126.115 344.845 131.893C425.231 181.008 450.581 285.99 401.465 366.375C352.349 446.76 247.369 472.111 166.983 422.996C86.5966 373.881 61.2471 268.899 110.363 188.512C124.397 165.544 143.668 146.222 166.6 132.127C175.806 126.349 181.365 116.216 181.291 105.347C181.34 87.684 167.061 73.3262 149.398 73.2772C143.331 73.2602 137.385 74.9692 132.253 78.2054C22.2203 146.55 -11.5734 291.152 56.7706 401.183C125.115 511.214 269.716 545.008 379.747 476.664C489.779 408.32 523.572 263.719 455.228 153.687C436.204 123.06 410.375 97.2305 379.747 78.2064C364.759 68.7508 344.943 73.2362 335.488 88.2247C332.257 93.3438 330.542 99.2734 330.538 105.327Z" fill="white"/>
</g>
<defs>
<clipPath id="clip0_307_10">
<rect width="512" height="512" fill="white"/>
</clipPath>
</defs>
</svg>
