<svg width="512" height="491" viewBox="0 0 512 491" fill="none" xmlns="http://www.w3.org/2000/svg">
<path d="M512 245.333C511.949 230.95 508.649 216.764 502.347 203.835C496.045 190.906 486.903 179.568 475.605 170.667C491.236 158.345 502.631 141.451 508.2 122.343C513.77 103.235 513.236 82.8646 506.673 64.0743C500.111 45.2839 487.847 29.0105 471.592 17.5242C455.338 6.03791 435.903 -0.0883779 416 -3.43748e-05H95.9999C76.0967 -0.0883779 56.6623 6.03791 40.4078 17.5242C24.1532 29.0105 11.8893 45.2839 5.32672 64.0743C-1.23582 82.8646 -1.76963 103.235 3.79976 122.343C9.36915 141.451 20.764 158.345 36.3946 170.667C25.0569 179.532 15.887 190.863 9.58046 203.8C3.27392 216.737 -0.00364905 230.941 -0.00364905 245.333C-0.00364905 259.726 3.27392 273.929 9.58046 286.866C15.887 299.803 25.0569 311.134 36.3946 320C20.764 332.322 9.36915 349.215 3.79976 368.323C-1.76963 387.432 -1.23582 407.802 5.32672 426.592C11.8893 445.383 24.1532 461.656 40.4078 473.142C56.6623 484.629 76.0967 490.755 95.9999 490.667H416C435.903 490.755 455.338 484.629 471.592 473.142C487.847 461.656 500.111 445.383 506.673 426.592C513.236 407.802 513.77 387.432 508.2 368.323C502.631 349.215 491.236 332.322 475.605 320C486.903 311.099 496.045 299.76 502.347 286.831C508.649 273.902 511.949 259.716 512 245.333ZM42.6666 96C42.6666 81.8551 48.2856 68.2895 58.2876 58.2876C68.2895 48.2857 81.8551 42.6666 95.9999 42.6666H106.667V64C106.667 69.6579 108.914 75.0841 112.915 79.0849C116.916 83.0857 122.342 85.3333 128 85.3333C133.658 85.3333 139.084 83.0857 143.085 79.0849C147.086 75.0841 149.333 69.6579 149.333 64V42.6666H192V64C192 69.6579 194.248 75.0841 198.248 79.0849C202.249 83.0857 207.675 85.3333 213.333 85.3333C218.991 85.3333 224.417 83.0857 228.418 79.0849C232.419 75.0841 234.667 69.6579 234.667 64V42.6666H416C430.145 42.6666 443.71 48.2857 453.712 58.2876C463.714 68.2895 469.333 81.8551 469.333 96C469.333 110.145 463.714 123.71 453.712 133.712C443.71 143.714 430.145 149.333 416 149.333H95.9999C81.8551 149.333 68.2895 143.714 58.2876 133.712C48.2856 123.71 42.6666 110.145 42.6666 96ZM469.333 394.667C469.333 408.812 463.714 422.377 453.712 432.379C443.71 442.381 430.145 448 416 448H95.9999C81.8551 448 68.2895 442.381 58.2876 432.379C48.2856 422.377 42.6666 408.812 42.6666 394.667C42.6666 380.522 48.2856 366.956 58.2876 356.954C68.2895 346.952 81.8551 341.333 95.9999 341.333H106.667V362.667C106.667 368.325 108.914 373.751 112.915 377.752C116.916 381.752 122.342 384 128 384C133.658 384 139.084 381.752 143.085 377.752C147.086 373.751 149.333 368.325 149.333 362.667V341.333H192V362.667C192 368.325 194.248 373.751 198.248 377.752C202.249 381.752 207.675 384 213.333 384C218.991 384 224.417 381.752 228.418 377.752C232.419 373.751 234.667 368.325 234.667 362.667V341.333H416C430.145 341.333 443.71 346.952 453.712 356.954C463.714 366.956 469.333 380.522 469.333 394.667ZM95.9999 298.667C81.8551 298.667 68.2895 293.048 58.2876 283.046C48.2856 273.044 42.6666 259.478 42.6666 245.333C42.6666 231.188 48.2856 217.623 58.2876 207.621C68.2895 197.619 81.8551 192 95.9999 192H106.667V213.333C106.667 218.991 108.914 224.417 112.915 228.418C116.916 232.419 122.342 234.667 128 234.667C133.658 234.667 139.084 232.419 143.085 228.418C147.086 224.417 149.333 218.991 149.333 213.333V192H192V213.333C192 218.991 194.248 224.417 198.248 228.418C202.249 232.419 207.675 234.667 213.333 234.667C218.991 234.667 224.417 232.419 228.418 228.418C232.419 224.417 234.667 218.991 234.667 213.333V192H416C430.145 192 443.71 197.619 453.712 207.621C463.714 217.623 469.333 231.188 469.333 245.333C469.333 259.478 463.714 273.044 453.712 283.046C443.71 293.048 430.145 298.667 416 298.667H95.9999Z" fill="white"/>
</svg>
