<svg width="512" height="512" viewBox="0 0 512 512" fill="none" xmlns="http://www.w3.org/2000/svg">
<path d="M301.248 256L384 173.163C389.373 167.056 392.218 159.133 391.959 151.004C391.699 142.874 388.354 135.149 382.603 129.397C376.851 123.646 369.126 120.301 360.996 120.041C352.867 119.781 344.944 122.627 338.837 128L256 210.752L173.013 127.744C170.041 124.772 166.512 122.414 162.628 120.805C158.745 119.196 154.582 118.368 150.379 118.368C146.175 118.368 142.012 119.196 138.129 120.805C134.245 122.414 130.716 124.772 127.744 127.744C124.772 130.716 122.414 134.245 120.805 138.129C119.196 142.013 118.368 146.175 118.368 150.379C118.368 154.582 119.196 158.745 120.805 162.628C122.414 166.512 124.772 170.041 127.744 173.013L210.752 256L128 338.816C124.755 341.717 122.135 345.25 120.302 349.198C118.469 353.146 117.461 357.427 117.339 361.778C117.217 366.13 117.984 370.46 119.594 374.505C121.203 378.549 123.621 382.223 126.699 385.301C129.777 388.379 133.451 390.797 137.495 392.406C141.54 394.016 145.87 394.783 150.222 394.661C154.573 394.539 158.854 393.531 162.802 391.698C166.75 389.865 170.283 387.245 173.184 384L256 301.248L338.731 384C344.734 390.003 352.876 393.376 361.365 393.376C369.855 393.376 377.997 390.003 384 384C390.003 377.997 393.376 369.855 393.376 361.365C393.376 352.876 390.003 344.734 384 338.731L301.248 256Z" fill="white"/>
</svg>
